<svg id="Layer_1" data-name="Layer 1" xmlns="http://www.w3.org/2000/svg" width="0.56in" height="0.42in" viewBox="0 0 40.5 30.25"><defs><style>.cls-1{opacity:0.2;}.cls-2{fill:#231f20;}.cls-3{fill:#e1e0d1;}.cls-4{fill:#fff;}</style></defs><title>envelope</title><g class="cls-1"><rect class="cls-2" x="0.25" y="2.13" width="40" height="28" rx="4" ry="4"/></g><rect class="cls-3" x="0.25" y="0.13" width="40" height="28" rx="4" ry="4"/><g class="cls-1"><path class="cls-2" d="M23.77,12.31a4.66,4.66,0,0,0-7,0L1.3,25.35a5.75,5.75,0,0,0-.46.58,3.92,3.92,0,0,0,3.41,2.19h32a3.92,3.92,0,0,0,3.41-2.19,5.75,5.75,0,0,0-.46-0.58Z"/></g><path class="cls-3" d="M23.77,14.13a5.07,5.07,0,0,0-7,0L1.3,25.67a5.24,5.24,0,0,0-.46.52,4,4,0,0,0,3.41,1.94h32a4,4,0,0,0,3.41-1.94,5.24,5.24,0,0,0-.46-0.52Z"/><g class="cls-1"><path class="cls-2" d="M0.84,2.31A3.92,3.92,0,0,1,4.25.13h32a3.92,3.92,0,0,1,3.41,2.19,5.75,5.75,0,0,1-.46.58l-15.43,13a4.66,4.66,0,0,1-7,0Z"/></g><path class="cls-4" d="M16.73,14.13a5.07,5.07,0,0,0,7,0L39.2,2.58a5.24,5.24,0,0,0,.46-0.52A4,4,0,0,0,36.25.13h-32A4,4,0,0,0,.84,2.06a5.24,5.24,0,0,0,.46.52Z"/></svg>