<svg id="Layer_1" data-name="Layer 1" xmlns="http://www.w3.org/2000/svg" width="1.1in" height="0.93in" viewBox="0 0 79 66.67"><defs><style>.cls-1{opacity:0.2;}.cls-2{fill:#231f20;}.cls-3{fill:#505d73;}.cls-4{fill:#fff;}.cls-5{fill:#e1e0d1;}.cls-6{fill:#f5cf87;}</style></defs><title>monitored</title><g class="cls-1"><rect class="cls-2" x="1.5" y="23.17" width="24" height="40" rx="4" ry="4"/></g><rect class="cls-3" x="3" y="22.67" width="21" height="37" rx="2.5" ry="2.5"/><path class="cls-4" d="M21.5,24.17a1,1,0,0,1,1,1v32a1,1,0,0,1-1,1H5.5a1,1,0,0,1-1-1v-32a1,1,0,0,1,1-1h16m0-3H5.5a4,4,0,0,0-4,4v32a4,4,0,0,0,4,4h16a4,4,0,0,0,4-4v-32a4,4,0,0,0-4-4h0Z"/><g class="cls-1"><polygon class="cls-4" points="7.75 22.67 23.5 60.79 23.5 22.67 7.75 22.67"/></g><polygon class="cls-4" points="21.5 61.17 5.5 61.17 1.5 53.17 25.5 53.17 21.5 61.17"/><circle class="cls-5" cx="13.5" cy="57.17" r="2"/><g class="cls-1"><path class="cls-2" d="M69.47,63.17a2,2,0,0,1-2,2h-20a2,2,0,0,1-2-2h0a2,2,0,0,1,2-2h20a2,2,0,0,1,2,2h0Z"/></g><path class="cls-4" d="M69.47,61.17a2,2,0,0,1-2,2h-20a2,2,0,0,1-2-2h0a2,2,0,0,1,2-2h20a2,2,0,0,1,2,2h0Z"/><path class="cls-5" d="M62.47,53.17s-1,6,3,6h-16c4,0,3-6,3-6h10Z"/><g class="cls-1"><rect class="cls-2" x="37.47" y="25.17" width="40" height="30" rx="4" ry="4"/></g><rect class="cls-3" x="38.97" y="24.67" width="37" height="27" rx="2.5" ry="2.5"/><path class="cls-4" d="M73.47,26.17a1,1,0,0,1,1,1v22a1,1,0,0,1-1,1h-32a1,1,0,0,1-1-1v-22a1,1,0,0,1,1-1h32m0-3h-32a4,4,0,0,0-4,4v22a4,4,0,0,0,4,4h32a4,4,0,0,0,4-4v-22a4,4,0,0,0-4-4h0Z"/><g class="cls-1"><polygon class="cls-4" points="75.48 51.05 75.48 25.05 51.73 25.05 66.68 51.05 75.48 51.05"/></g><path class="cls-6" d="M30.93,19.67c-2.34,0-3.3-1.66-2.13-3.69l8-13.88c1.17-2,3.09-2,4.26,0L49.1,16c1.17,2,.21,3.69-2.13,3.69h-16Z"/><path class="cls-3" d="M40,11.14a1.07,1.07,0,0,1-1.07,1.07h0a1.07,1.07,0,0,1-1.07-1.07V6.88a1.07,1.07,0,0,1,1.07-1.07h0A1.07,1.07,0,0,1,40,6.88v4.26Z"/><path class="cls-3" d="M40,15.4a1.07,1.07,0,0,1-1.07,1.07h0a1.07,1.07,0,0,1-1.07-1.07h0a1.07,1.07,0,0,1,1.07-1.07h0A1.07,1.07,0,0,1,40,15.4h0Z"/></svg>