<svg id="Layer_1" data-name="Layer 1" xmlns="http://www.w3.org/2000/svg" viewBox="0 0 105.71 39.06"><defs><style>.cls-1{fill:#51ae92;}.cls-2{fill:#fff;}.cls-3{fill:none;stroke:#fff;stroke-linecap:round;stroke-miterlimit:10;stroke-width:0.8px;}</style></defs><title>Vector Smart Object1</title><path class="cls-1" d="M10.52,14.4a2.09,2.09,0,0,0-.44-0.31,8.34,8.34,0,0,0-.94-0.48,9.17,9.17,0,0,0-1.23-.44A4.93,4.93,0,0,0,6.57,13q-1.84,0-1.84,1.23a1,1,0,0,0,.2.63,1.75,1.75,0,0,0,.58.45,5.4,5.4,0,0,0,1,.37L7.85,16a17.81,17.81,0,0,1,1.92.64,5.17,5.17,0,0,1,1.45.86,3.48,3.48,0,0,1,.92,1.24,4.32,4.32,0,0,1,.32,1.76A4.4,4.4,0,0,1,12,22.64,4,4,0,0,1,10.75,24,5.25,5.25,0,0,1,9,24.81a8.85,8.85,0,0,1-2.07.24,11.55,11.55,0,0,1-1.67-.12,12.16,12.16,0,0,1-1.67-.37A13.21,13.21,0,0,1,2,24a8.82,8.82,0,0,1-1.41-.77l1.5-3a2.91,2.91,0,0,0,.54.4,8.13,8.13,0,0,0,1.14.59,11.6,11.6,0,0,0,1.52.52A6.35,6.35,0,0,0,7,22q1.82,0,1.82-1.11a0.94,0.94,0,0,0-.27-0.69,2.56,2.56,0,0,0-.75-0.49,8.17,8.17,0,0,0-1.14-.41l-1.43-.42a12.39,12.39,0,0,1-1.78-.68,4.67,4.67,0,0,1-1.24-.85,3.07,3.07,0,0,1-.73-1.11,4.07,4.07,0,0,1-.24-1.46,4.66,4.66,0,0,1,.44-2.07,4.47,4.47,0,0,1,1.19-1.52,5.18,5.18,0,0,1,1.75-.93,6.93,6.93,0,0,1,2.1-.31,8,8,0,0,1,1.53.15,11.51,11.51,0,0,1,1.44.38,10.36,10.36,0,0,1,1.29.52q0.6,0.29,1.1.58Z" transform="translate(-0.57 -0.74)"/><path class="cls-1" d="M25.88,13.06H21.37V24.89H17.94V13.06H13.41V10H25.88v3Z" transform="translate(-0.57 -0.74)"/><path class="cls-1" d="M30.75,10h3.09l5.41,14.84H35.75L34.6,21.56H30l-1.13,3.32H25.34ZM34,19.2L32.3,14,30.52,19.2H34Z" transform="translate(-0.57 -0.74)"/><path class="cls-1" d="M41.35,24.89V10h3.43V21.88H52v3H41.35Z" transform="translate(-0.57 -0.74)"/><path class="cls-1" d="M54.2,24.89V10h3.43v6.4L63.06,10h3.85l-5.56,6.63,5.94,8.21H63.38l-4.2-6-1.55,1.61v4.37H54.2Z" transform="translate(-0.57 -0.74)"/><path class="cls-1" d="M69,24.89V10h3.43V24.89H69Z" transform="translate(-0.57 -0.74)"/><path class="cls-1" d="M79.35,16.4v8.49H75.92V10h2.67l6.92,8.72V10h3.43V24.89H86.18Z" transform="translate(-0.57 -0.74)"/><path class="cls-1" d="M102.61,23.43A5.58,5.58,0,0,1,98.7,25a6.94,6.94,0,0,1-5-2.11,7.35,7.35,0,0,1-1.54-2.41,8.29,8.29,0,0,1-.56-3.1,7.45,7.45,0,0,1,.56-2.88,7.57,7.57,0,0,1,10.45-3.67,5.64,5.64,0,0,1,2.32,2.37l-2.55,1.92a3.65,3.65,0,0,0-1.45-1.56A4,4,0,0,0,98.85,13a3.48,3.48,0,0,0-1.56.34,3.57,3.57,0,0,0-1.2,1,4.5,4.5,0,0,0-.77,1.43A5.52,5.52,0,0,0,95,17.49a5.22,5.22,0,0,0,.29,1.78,4.33,4.33,0,0,0,.81,1.41,3.71,3.71,0,0,0,1.24.93,3.75,3.75,0,0,0,1.6.33,4.72,4.72,0,0,0,3.62-1.86V19.62H99.72V17.13h5.73v7.75h-2.84V23.43Z" transform="translate(-0.57 -0.74)"/><path class="cls-2" d="M1.18,39.75V34.23H3.52a1.57,1.57,0,0,1,.7.16,1.82,1.82,0,0,1,.56.42,2,2,0,0,1,.37.59,1.78,1.78,0,0,1,.13.66,1.94,1.94,0,0,1-.47,1.27,1.72,1.72,0,0,1-.54.41,1.57,1.57,0,0,1-.7.16H2.25v1.85H1.18ZM2.25,37H3.5A0.61,0.61,0,0,0,4,36.72a1,1,0,0,0,.2-0.65,1.07,1.07,0,0,0-.06-0.38A0.93,0.93,0,0,0,4,35.41a0.65,0.65,0,0,0-.24-0.17,0.69,0.69,0,0,0-.28-0.06H2.25V37Z" transform="translate(-0.57 -0.74)"/><path class="cls-2" d="M7.86,39.75V34.23H10.3a1.57,1.57,0,0,1,.7.16,1.82,1.82,0,0,1,.56.42,2,2,0,0,1,.37.59,1.78,1.78,0,0,1,.13.66,1.83,1.83,0,0,1-.27,1,1.54,1.54,0,0,1-.73.63l1.26,2.08h-1.2L10,37.9H8.94v1.85H7.86ZM8.94,37h1.34a0.57,0.57,0,0,0,.28-0.07,0.7,0.7,0,0,0,.22-0.19,1,1,0,0,0,.15-0.28A1.1,1.1,0,0,0,11,36.07a1,1,0,0,0-.06-0.36,0.92,0.92,0,0,0-.17-0.28,0.75,0.75,0,0,0-.24-0.19,0.63,0.63,0,0,0-.28-0.07H8.94V37Z" transform="translate(-0.57 -0.74)"/><path class="cls-2" d="M17.23,39.79a2.5,2.5,0,0,1-1.1-.24,2.69,2.69,0,0,1-.85-0.63A2.92,2.92,0,0,1,14.54,37a2.78,2.78,0,0,1,.21-1.06A2.92,2.92,0,0,1,15.31,35a2.71,2.71,0,0,1,.86-0.62,2.55,2.55,0,0,1,1.08-.23,2.42,2.42,0,0,1,1.09.24,2.72,2.72,0,0,1,.84.64,3,3,0,0,1,.54.9,2.84,2.84,0,0,1,.19,1,2.79,2.79,0,0,1-.2,1.05,2.86,2.86,0,0,1-.56.89,2.69,2.69,0,0,1-.85.61A2.55,2.55,0,0,1,17.23,39.79ZM15.63,37a2.21,2.21,0,0,0,.11.69,1.84,1.84,0,0,0,.31.59,1.56,1.56,0,0,0,.5.41,1.56,1.56,0,0,0,1.37,0,1.56,1.56,0,0,0,.5-0.42,1.89,1.89,0,0,0,.31-0.59,2.21,2.21,0,0,0,.1-0.67,2.15,2.15,0,0,0-.11-0.69,1.91,1.91,0,0,0-.32-0.59,1.52,1.52,0,0,0-.51-0.41,1.58,1.58,0,0,0-1.36,0,1.53,1.53,0,0,0-.5.42,1.89,1.89,0,0,0-.31.59A2.21,2.21,0,0,0,15.63,37Z" transform="translate(-0.57 -0.74)"/><path class="cls-2" d="M26.46,35.17H24.7v4.58H23.63V35.17H21.87V34.23h4.59v0.94Z" transform="translate(-0.57 -0.74)"/><path class="cls-2" d="M32.82,38.81v0.94H29V34.23h3.76v0.94H30.06V36.5h2.32v0.87H30.06v1.44h2.76Z" transform="translate(-0.57 -0.74)"/><path class="cls-2" d="M35.05,37a2.85,2.85,0,0,1,.18-1,2.68,2.68,0,0,1,1.39-1.51,2.64,2.64,0,0,1,1.15-.24,2.51,2.51,0,0,1,1.32.33,2.14,2.14,0,0,1,.83.87L39.09,36a1.41,1.41,0,0,0-.26-0.39,1.33,1.33,0,0,0-.33-0.25,1.5,1.5,0,0,0-.37-0.14,1.78,1.78,0,0,0-.38,0,1.44,1.44,0,0,0-.7.16,1.55,1.55,0,0,0-.5.42,1.87,1.87,0,0,0-.3.59,2.23,2.23,0,0,0-.1.66,2.15,2.15,0,0,0,.12.7,1.87,1.87,0,0,0,.33.59,1.64,1.64,0,0,0,.51.41,1.4,1.4,0,0,0,.66.16,1.72,1.72,0,0,0,.39,0,1.49,1.49,0,0,0,.38-0.15,1.45,1.45,0,0,0,.34-0.26A1.21,1.21,0,0,0,39.12,38L40,38.52a1.64,1.64,0,0,1-.38.55,2.42,2.42,0,0,1-.55.4,2.79,2.79,0,0,1-.66.25,2.87,2.87,0,0,1-.68.09,2.35,2.35,0,0,1-1.08-.25,2.8,2.8,0,0,1-.84-0.65A3,3,0,0,1,35.25,38,2.85,2.85,0,0,1,35.05,37Z" transform="translate(-0.57 -0.74)"/><path class="cls-2" d="M46.63,35.17H44.87v4.58H43.8V35.17H42V34.23h4.59v0.94Z" transform="translate(-0.57 -0.74)"/><path class="cls-2" d="M49.16,39.75V34.23h1.07v5.52H49.16Z" transform="translate(-0.57 -0.74)"/><path class="cls-2" d="M55.58,39.79a2.5,2.5,0,0,1-1.1-.24,2.69,2.69,0,0,1-.85-0.63A2.92,2.92,0,0,1,52.89,37a2.78,2.78,0,0,1,.21-1.06A2.92,2.92,0,0,1,53.66,35a2.71,2.71,0,0,1,.86-0.62,2.55,2.55,0,0,1,1.08-.23,2.42,2.42,0,0,1,1.09.24,2.72,2.72,0,0,1,.84.64,3,3,0,0,1,.54.9,2.84,2.84,0,0,1,.19,1,2.79,2.79,0,0,1-.2,1.05,2.86,2.86,0,0,1-.56.89,2.69,2.69,0,0,1-.85.61A2.55,2.55,0,0,1,55.58,39.79ZM54,37a2.21,2.21,0,0,0,.11.69,1.84,1.84,0,0,0,.31.59,1.56,1.56,0,0,0,.5.41,1.56,1.56,0,0,0,1.37,0,1.56,1.56,0,0,0,.5-0.42,1.89,1.89,0,0,0,.31-0.59A2.21,2.21,0,0,0,57.2,37a2.15,2.15,0,0,0-.11-0.69,1.91,1.91,0,0,0-.32-0.59,1.52,1.52,0,0,0-.51-0.41,1.58,1.58,0,0,0-1.36,0,1.53,1.53,0,0,0-.5.42,1.89,1.89,0,0,0-.31.59A2.21,2.21,0,0,0,54,37Z" transform="translate(-0.57 -0.74)"/><path class="cls-2" d="M62,36.21v3.54H60.94V34.23h0.83l2.88,3.62V34.24h1.07v5.51H64.85Z" transform="translate(-0.57 -0.74)"/><path class="cls-2" d="M74.78,39.79a2.5,2.5,0,0,1-1.1-.24,2.69,2.69,0,0,1-.85-0.63A2.92,2.92,0,0,1,72.09,37a2.78,2.78,0,0,1,.21-1.06A2.92,2.92,0,0,1,72.86,35a2.71,2.71,0,0,1,.86-0.62,2.55,2.55,0,0,1,1.08-.23,2.42,2.42,0,0,1,1.09.24,2.72,2.72,0,0,1,.84.64,3,3,0,0,1,.54.9,2.84,2.84,0,0,1,.19,1,2.79,2.79,0,0,1-.2,1.05,2.86,2.86,0,0,1-.56.89,2.69,2.69,0,0,1-.85.61A2.55,2.55,0,0,1,74.78,39.79ZM73.18,37a2.21,2.21,0,0,0,.11.69,1.84,1.84,0,0,0,.31.59,1.56,1.56,0,0,0,.5.41,1.56,1.56,0,0,0,1.37,0,1.56,1.56,0,0,0,.5-0.42,1.89,1.89,0,0,0,.31-0.59,2.21,2.21,0,0,0,.1-0.67,2.15,2.15,0,0,0-.11-0.69A1.91,1.91,0,0,0,76,35.71a1.52,1.52,0,0,0-.51-0.41,1.58,1.58,0,0,0-1.36,0,1.53,1.53,0,0,0-.5.42,1.89,1.89,0,0,0-.31.59A2.21,2.21,0,0,0,73.18,37Z" transform="translate(-0.57 -0.74)"/><path class="cls-2" d="M80.14,39.75V34.23h2.44a1.57,1.57,0,0,1,.7.16,1.82,1.82,0,0,1,.56.42,2,2,0,0,1,.37.59,1.78,1.78,0,0,1,.13.66,1.83,1.83,0,0,1-.27,1,1.54,1.54,0,0,1-.73.63l1.26,2.08H83.4L82.27,37.9H81.21v1.85H80.14ZM81.21,37h1.34a0.57,0.57,0,0,0,.28-0.07,0.7,0.7,0,0,0,.22-0.19,1,1,0,0,0,.15-0.28,1.1,1.1,0,0,0,.05-0.35,1,1,0,0,0-.06-0.36A0.92,0.92,0,0,0,83,35.43a0.75,0.75,0,0,0-.24-0.19,0.63,0.63,0,0,0-.28-0.07h-1.3V37Z" transform="translate(-0.57 -0.74)"/><path class="cls-2" d="M87.15,39.75V34.23h2a3,3,0,0,1,1.19.22,2.39,2.39,0,0,1,1.36,1.46A3.3,3.3,0,0,1,91.88,37a3.23,3.23,0,0,1-.19,1.14,2.43,2.43,0,0,1-.55.87,2.47,2.47,0,0,1-.86.56,3,3,0,0,1-1.12.2h-2ZM90.8,37a2.36,2.36,0,0,0-.11-0.73,1.64,1.64,0,0,0-.32-0.58,1.42,1.42,0,0,0-.52-0.37,1.75,1.75,0,0,0-.7-0.13H88.22v3.64h0.93a1.68,1.68,0,0,0,.7-0.14,1.44,1.44,0,0,0,.51-0.38,1.72,1.72,0,0,0,.31-0.58A2.33,2.33,0,0,0,90.8,37Z" transform="translate(-0.57 -0.74)"/><path class="cls-2" d="M98.39,38.81v0.94H94.56V34.23h3.76v0.94H95.63V36.5H98v0.87H95.63v1.44h2.76Z" transform="translate(-0.57 -0.74)"/><path class="cls-2" d="M101.07,39.75V34.23h2.44a1.57,1.57,0,0,1,.7.16,1.82,1.82,0,0,1,.56.42,2,2,0,0,1,.37.59,1.78,1.78,0,0,1,.13.66,1.83,1.83,0,0,1-.27,1,1.54,1.54,0,0,1-.73.63l1.26,2.08h-1.2L103.2,37.9h-1.06v1.85h-1.07ZM102.14,37h1.34a0.57,0.57,0,0,0,.28-0.07A0.7,0.7,0,0,0,104,36.7a1,1,0,0,0,.15-0.28,1.1,1.1,0,0,0,.05-0.35,1,1,0,0,0-.06-0.36,0.92,0.92,0,0,0-.17-0.28,0.75,0.75,0,0,0-.24-0.19,0.63,0.63,0,0,0-.28-0.07h-1.3V37Z" transform="translate(-0.57 -0.74)"/><path class="cls-2" d="M1.51,5.74v-5H2.29V3.33L4.63,0.77H5.5L3.54,3,5.61,5.74H4.73L3.05,3.45l-0.76.79v1.5H1.51Z" transform="translate(-0.57 -0.74)"/><path class="cls-2" d="M11.82,5.74v-5H12.6v5H11.82Z" transform="translate(-0.57 -0.74)"/><path class="cls-2" d="M20.2,2.24v3.5H19.41v-5H20l2.84,3.58V0.78h0.79v5H23Z" transform="translate(-0.57 -0.74)"/><path class="cls-2" d="M34,5.13a2,2,0,0,1-1.45.65,2.09,2.09,0,0,1-.92-0.21A2.39,2.39,0,0,1,30.84,5a2.6,2.6,0,0,1-.49-0.81,2.65,2.65,0,0,1-.18-1,2.6,2.6,0,0,1,.18-1,2.54,2.54,0,0,1,.49-0.8A2.33,2.33,0,0,1,31.58.94a2.46,2.46,0,0,1,2.14.1,1.92,1.92,0,0,1,.73.79l-0.6.43a1.39,1.39,0,0,0-.56-0.61,1.56,1.56,0,0,0-.78-0.2,1.35,1.35,0,0,0-.64.15,1.57,1.57,0,0,0-.49.4,1.78,1.78,0,0,0-.31.58,2.16,2.16,0,0,0-.11.69,2,2,0,0,0,.12.71,1.84,1.84,0,0,0,.34.57,1.59,1.59,0,0,0,.51.39,1.43,1.43,0,0,0,.64.14,1.59,1.59,0,0,0,.72-0.18A2.12,2.12,0,0,0,34,4.34V3.81h-1V3.23h1.7V5.74H34V5.13Z" transform="translate(-0.57 -0.74)"/><path class="cls-2" d="M48.3,3.22a2.62,2.62,0,0,1,.16-0.89,2.47,2.47,0,0,1,.47-0.8A2.38,2.38,0,0,1,49.69,1a2.29,2.29,0,0,1,1-.22,2.15,2.15,0,0,1,1.16.3,2,2,0,0,1,.73.78L52,2.24a1.39,1.39,0,0,0-.25-0.38,1.22,1.22,0,0,0-.32-0.25A1.39,1.39,0,0,0,51,1.49a1.81,1.81,0,0,0-.36,0,1.43,1.43,0,0,0-.69.16A1.53,1.53,0,0,0,49.5,2a1.86,1.86,0,0,0-.3.58,2.13,2.13,0,0,0-.1.64,2,2,0,0,0,.12.69,1.87,1.87,0,0,0,.33.58,1.64,1.64,0,0,0,.51.4,1.4,1.4,0,0,0,.64.15,1.63,1.63,0,0,0,.37,0,1.41,1.41,0,0,0,.37-0.15,1.5,1.5,0,0,0,.33-0.26A1.29,1.29,0,0,0,52,4.26l0.65,0.37a1.52,1.52,0,0,1-.34.49,2.15,2.15,0,0,1-.49.36,2.53,2.53,0,0,1-.58.22,2.43,2.43,0,0,1-.6.08,2.06,2.06,0,0,1-1-.22A2.5,2.5,0,0,1,49,5a2.69,2.69,0,0,1-.49-0.82A2.6,2.6,0,0,1,48.3,3.22Z" transform="translate(-0.57 -0.74)"/><path class="cls-2" d="M61.11,5.78a2.18,2.18,0,0,1-1-.21A2.41,2.41,0,0,1,59.39,5a2.55,2.55,0,0,1-.49-0.81,2.62,2.62,0,0,1-.17-0.93,2.54,2.54,0,0,1,.18-1,2.65,2.65,0,0,1,.5-0.81A2.39,2.39,0,0,1,60.17.94a2.21,2.21,0,0,1,1-.21,2.12,2.12,0,0,1,1,.22,2.44,2.44,0,0,1,.75.58,2.65,2.65,0,0,1,.48.81,2.59,2.59,0,0,1,0,1.87,2.52,2.52,0,0,1-.5.8,2.46,2.46,0,0,1-.76.55A2.2,2.2,0,0,1,61.11,5.78ZM59.53,3.26a2.09,2.09,0,0,0,.11.68,1.84,1.84,0,0,0,.32.58,1.56,1.56,0,0,0,.5.4,1.42,1.42,0,0,0,.66.15,1.38,1.38,0,0,0,.67-0.16,1.57,1.57,0,0,0,.49-0.42,1.87,1.87,0,0,0,.31-0.58,2.13,2.13,0,0,0,0-1.34A1.82,1.82,0,0,0,62.26,2a1.59,1.59,0,0,0-.5-0.4,1.49,1.49,0,0,0-1.32,0,1.6,1.6,0,0,0-.5.41,1.84,1.84,0,0,0-.31.58A2.08,2.08,0,0,0,59.53,3.26Z" transform="translate(-0.57 -0.74)"/><path class="cls-2" d="M72.07,5.07a1.26,1.26,0,0,0,.65-0.15,1.23,1.23,0,0,0,.42-0.4,1.7,1.7,0,0,0,.22-0.57,3.19,3.19,0,0,0,.07-0.65V0.77h0.79V3.29a3.78,3.78,0,0,1-.12,1,2.23,2.23,0,0,1-.38.79,1.81,1.81,0,0,1-.67.54,2.26,2.26,0,0,1-1,.2,2.21,2.21,0,0,1-1-.21A1.81,1.81,0,0,1,70.41,5,2.27,2.27,0,0,1,70,4.22a3.82,3.82,0,0,1-.11-0.93V0.77h0.78V3.29a3.22,3.22,0,0,0,.07.66,1.7,1.7,0,0,0,.22.57,1.19,1.19,0,0,0,.42.4A1.29,1.29,0,0,0,72.07,5.07Z" transform="translate(-0.57 -0.74)"/><path class="cls-2" d="M81.74,2.24v3.5H81v-5h0.62l2.84,3.58V0.78H85.2v5H84.55Z" transform="translate(-0.57 -0.74)"/><path class="cls-2" d="M95.66,1.47H94V5.74H93.22V1.47H91.56V0.77h4.1V1.47Z" transform="translate(-0.57 -0.74)"/><path class="cls-2" d="M102.38,0.77l1.37,2.49,1.39-2.49H106L104.15,4V5.74h-0.78V4l-1.84-3.18h0.86Z" transform="translate(-0.57 -0.74)"/><line class="cls-3" x1="0.65" y1="28.78" x2="105.31" y2="28.78"/></svg>