<svg id="Layer_1" data-name="Layer 1" xmlns="http://www.w3.org/2000/svg" viewBox="0 0 138 138"><defs><style>.cls-1{fill:#d03f32;}.cls-2{opacity:0.2;}.cls-3{fill:#221f1f;}.cls-4{fill:#eeab60;}.cls-5{fill:#76c2af;}.cls-6{fill:#e1e0d1;}.cls-7{fill:#2d4e7d;}.cls-8{fill:#fff;}.cls-9{fill:#78b4d4;}</style></defs><title>SVG_icons</title><circle class="cls-1" cx="69" cy="69" r="67.53"/><g class="cls-2"><path class="cls-3" d="M111.56,102.76a4.22,4.22,0,0,1-4.22,4.22h-76a4.22,4.22,0,0,1-4.22-4.22h0a4.22,4.22,0,0,1,4.22-4.22h76a4.22,4.22,0,0,1,4.22,4.22h0Z"/></g><path class="cls-4" d="M111.56,98.54a4.22,4.22,0,0,1-4.22,4.22h-76a4.22,4.22,0,0,1-4.22-4.22h0a4.22,4.22,0,0,1,4.22-4.22h76a4.22,4.22,0,0,1,4.22,4.22h0Z"/><path class="cls-5" d="M50.36,43.68H41.92A6.33,6.33,0,0,0,35.59,50V94.32h21.1V50A6.33,6.33,0,0,0,50.36,43.68Z"/><path class="cls-6" d="M96.78,35.24H88.34A6.33,6.33,0,0,0,82,41.57V94.32h21.1V41.57A6.33,6.33,0,0,0,96.78,35.24Z"/><rect class="cls-7" x="35.59" y="52.12" width="21.1" height="6.33"/><rect class="cls-7" x="35.59" y="79.55" width="21.1" height="6.33"/><rect class="cls-8" x="82.01" y="79.55" width="21.1" height="6.33"/><rect class="cls-8" x="82.01" y="43.68" width="21.1" height="6.33"/><g class="cls-2"><path class="cls-3" d="M86.23,85.88V35.62A6.31,6.31,0,0,0,82,41.57V94.32h4.22V85.88Z"/></g><g class="cls-2"><path class="cls-3" d="M56.69,85.88V50a6.31,6.31,0,0,0-4.22-5.94V94.32h4.22V85.88Z"/></g><path class="cls-7" d="M75.68,26.8H63a6.33,6.33,0,0,0-6.33,6.33v61.2H82V33.13A6.33,6.33,0,0,0,75.68,26.8Z"/><rect class="cls-9" x="56.69" y="35.24" width="25.32" height="6.33"/><rect class="cls-9" x="56.69" y="79.55" width="25.32" height="6.33"/></svg>