<?xml version="1.0" encoding="utf-8"?>
<!-- Generator: Adobe Illustrator 19.2.1, SVG Export Plug-In . SVG Version: 6.00 Build 0)  -->
<svg version="1.1" id="Layer_1" xmlns="http://www.w3.org/2000/svg" xmlns:xlink="http://www.w3.org/1999/xlink" x="0px" y="0px"
	 width="100px" height="100px" viewBox="0 0 100 100" style="enable-background:new 0 0 100 100;" xml:space="preserve">
<style type="text/css">
	.st0{fill:#76C2AF;}
	.st1{opacity:0.2;}
	.st2{fill:#221F1F;}
	.st3{fill:#FFFFFF;}
	.st4{fill:#2D4E7D;}
	.st5{fill:#D03F32;}
</style>
<g>
	<title>SVG_icons</title>
	<circle class="st0" cx="50" cy="50" r="50"/>
	<g class="st1">
		<path class="st2" d="M34.4,32.8h31.3c3.5,0,6.2,2.8,6.2,6.2v31.3c0,3.5-2.8,6.2-6.2,6.2H34.4c-3.5,0-6.2-2.8-6.2-6.2V39.1
			C28.1,35.6,30.9,32.8,34.4,32.8z"/>
	</g>
	<path class="st3" d="M34.4,32.8h31.3c1.7,0,3.1,1.4,3.1,3.1v31.3c0,1.7-1.4,3.1-3.1,3.1H34.4c-1.7,0-3.1-1.4-3.1-3.1V35.9
		C31.3,34.2,32.7,32.8,34.4,32.8z"/>
	<path class="st4" d="M65.6,35.9v31.2H34.4V35.9H65.6 M65.6,29.7H34.4c-3.5,0-6.2,2.8-6.2,6.2c0,0,0,0,0,0v31.2
		c0,3.5,2.8,6.2,6.2,6.2c0,0,0,0,0,0h31.2c3.5,0,6.2-2.8,6.2-6.2l0,0V35.9C71.9,32.5,69.1,29.7,65.6,29.7L65.6,29.7L65.6,29.7z"/>
	<g class="st1">
		<path class="st2" d="M50.7,64.1c-1,0-1.9-0.5-2.5-1.2l-9.6-12.5c-1-1.4-0.7-3.3,0.7-4.4c1.4-1,3.2-0.7,4.3,0.6l6.5,8.6
			c3.6-6.5,11.4-18.4,23.9-26.5c1.4-0.9,3.4-0.5,4.3,0.9c0.9,1.4,0.5,3.4-0.9,4.3l0,0C61.5,44.2,53.7,62,53.6,62.2
			c-0.4,1-1.4,1.7-2.5,1.9C51,64.1,50.9,64.1,50.7,64.1z"/>
	</g>
	<path class="st5" d="M50.7,60.9c-1,0-1.9-0.5-2.5-1.2l-9.6-12.5c-1-1.4-0.8-3.3,0.6-4.4c1.4-1,3.3-0.8,4.4,0.6l6.5,8.6
		c3.6-6.5,11.4-18.4,23.9-26.5c1.5-0.9,3.4-0.5,4.3,0.9c0.9,1.5,0.5,3.4-0.9,4.3l0,0C61.5,41.1,53.7,58.9,53.6,59.1
		c-0.4,1-1.4,1.7-2.5,1.9C51,60.9,50.9,60.9,50.7,60.9z"/>
</g>
</svg>
