<?xml version="1.0" encoding="utf-8"?>
<!-- Generator: Adobe Illustrator 19.2.1, SVG Export Plug-In . SVG Version: 6.00 Build 0)  -->
<svg version="1.1" id="Layer_1" xmlns="http://www.w3.org/2000/svg" xmlns:xlink="http://www.w3.org/1999/xlink" x="0px" y="0px"
	 width="100px" height="100px" viewBox="0 0 100 100" style="enable-background:new 0 0 100 100;" xml:space="preserve">
<style type="text/css">
	.st0{fill:#78B4D4;}
	.st1{opacity:0.2;}
	.st2{fill:#221F1F;}
	.st3{fill:#FFFFFF;}
	.st4{fill:#2D4E7D;}
	.st5{fill:#E1E0D1;}
</style>
<g>
	<title>SVG_icons</title>
	<circle class="st0" cx="50" cy="50" r="50"/>
	<g class="st1">
		<path class="st2" d="M78,72.3L55.9,50.2c-1.6-1.5-3.8-2.2-5.9-1.6L37.3,36.1l-4.7-9.2l-9.2-4.8l-4.5,4.5l4.8,9.2l9.2,4.8l0,0
			L45.4,53c-0.6,2.2,0,4.5,1.6,6l22.1,22.1c2.4,2.4,6.4,2.4,8.8,0C80.4,78.7,80.4,74.7,78,72.3z"/>
	</g>
	<polygon class="st3" points="53.9,58.2 28.7,33.4 33.3,29 58.5,53.9 	"/>
	<path class="st4" d="M78,78c-2.4,2.4-6.4,2.4-8.8,0c0,0,0,0,0,0L47,55.9c-2.4-2.4-2.4-6.4,0-8.8l0,0c2.4-2.4,6.4-2.4,8.8,0
		c0,0,0,0,0,0L78,69.1C80.4,71.6,80.4,75.5,78,78C78,78,78,78,78,78L78,78L78,78z"/>
	<g class="st1">
		<path class="st2" d="M83.3,28.7L73.2,38.8c-2.4,2.4-6.4,2.4-8.8,0c-2.4-2.4-2.4-6.4,0-8.8l10.1-10.1c-8-3.2-17.1,0.8-20.2,8.8
			c-1.4,3.7-1.4,7.8,0,11.4L36.9,57.3c-8-3.2-17.1,0.7-20.3,8.7c-1.5,3.7-1.5,7.8,0,11.5l10.2-10.1c2.4-2.4,6.4-2.4,8.8,0
			c2.4,2.4,2.4,6.4,0,8.8l0,0L25.6,86.4c8,3.2,17.1-0.8,20.2-8.8c1.4-3.7,1.4-7.8,0-11.4l17.3-17.3c8,3.2,17.1-0.7,20.3-8.7
			C84.8,36.5,84.8,32.4,83.3,28.7z"/>
	</g>
	
		<rect x="36.6" y="43.7" transform="matrix(0.7071 -0.7071 0.7071 0.7071 -20.7079 50.0015)" class="st5" width="26.8" height="12.5"/>
	<polygon class="st3" points="32.8,37.4 23.6,32.7 18.8,23.4 23.3,19 32.5,23.7 37.3,32.9 	"/>
	<path class="st5" d="M73.2,35.7c-2.4,2.4-6.4,2.4-8.8,0c-2.4-2.4-2.4-6.4,0-8.8l10.1-10.2c-8.1-3.1-17.1,0.8-20.3,8.9
		C51,33.6,55,42.7,63,45.9C71.1,49,80.2,45,83.3,37c1.4-3.7,1.4-7.7,0-11.4L73.2,35.7z"/>
	<path class="st5" d="M26.8,64.3c2.4-2.4,6.4-2.4,8.8,0c2.4,2.4,2.4,6.4,0,8.8L25.6,83.3c8.1,3.1,17.1-0.8,20.3-8.9
		C49,66.4,45,57.3,37,54.1C28.9,51,19.8,55,16.7,63c-1.4,3.7-1.4,7.7,0,11.4L26.8,64.3z"/>
</g>
</svg>
