<svg id="Layer_1" data-name="Layer 1" xmlns="http://www.w3.org/2000/svg" viewBox="0 0 138 138"><defs><style>.cls-1{fill:#78b4d4;}.cls-2{opacity:0.2;}.cls-3{fill:#221f1f;}.cls-4{fill:#eeab60;}.cls-5{fill:#fff;}.cls-6{fill:#e1e0d1;}.cls-7{fill:#505d73;}</style></defs><title>SVG_icons</title><circle class="cls-1" cx="69" cy="69" r="67.53"/><g class="cls-2"><path class="cls-3" d="M102.76,31H35.24a8.44,8.44,0,0,0-8.44,8.44V107a8.44,8.44,0,0,0,8.44,8.44h67.53A8.44,8.44,0,0,0,111.2,107V39.46A8.44,8.44,0,0,0,102.76,31Z"/></g><path class="cls-4" d="M102.76,26.8H35.24a8.44,8.44,0,0,0-8.44,8.44v67.53a8.44,8.44,0,0,0,8.44,8.44h67.53a8.44,8.44,0,0,0,8.44-8.44V35.24A8.44,8.44,0,0,0,102.76,26.8Z"/><g class="cls-2"><rect class="cls-3" x="35.24" y="39.46" width="67.53" height="67.53"/></g><rect class="cls-5" x="35.24" y="35.24" width="67.53" height="67.53"/><rect class="cls-6" x="47.9" y="52.12" width="42.2" height="4.22"/><rect class="cls-6" x="47.9" y="60.56" width="42.2" height="4.22"/><rect class="cls-6" x="47.9" y="69" width="42.2" height="4.22"/><rect class="cls-6" x="47.9" y="77.44" width="42.2" height="4.22"/><rect class="cls-6" x="47.9" y="85.88" width="42.2" height="4.22"/><g class="cls-2"><path class="cls-3" d="M79.55,26.8H52.12V37.35a6.33,6.33,0,0,0,6.33,6.33h21.1a6.33,6.33,0,0,0,6.33-6.33V26.8H79.55Z"/></g><path class="cls-7" d="M79.55,22.57H52.12V33.13a6.33,6.33,0,0,0,6.33,6.33h21.1a6.33,6.33,0,0,0,6.33-6.33V22.57H79.55Z"/></svg>