<svg id="Layer_1" data-name="Layer 1" xmlns="http://www.w3.org/2000/svg" viewBox="0 0 138 138"><defs><style>.cls-1{fill:#76c2af;}.cls-2{fill:#2d4e7d;}</style></defs><title>SVG_icons</title><circle class="cls-1" cx="69" cy="69" r="67.53"/><path class="cls-2" d="M56.54,79c1.19-3.43,3.43-9.1.26-20S49,43.72,42.69,43.72c0,0-10.87-.6-11.61,16.68-0.81,19.1,5.89,23.78,8,34.71L55,90.57A26.67,26.67,0,0,1,56.54,79Z"/><path class="cls-2" d="M56.89,96.6l-17.14,4.9c0.89,11.23,6.35,20.25,15.73,17.72,9.76-2.64,5.3-15.9,1.47-22.49Z"/><path class="cls-2" d="M81.46,62.09C80.27,58.66,78,53,81.2,42S89,26.82,95.31,26.82c0,0,10.87-.6,11.61,16.68,0.81,19.1-5.89,23.78-8,34.71L83,73.67A26.67,26.67,0,0,0,81.46,62.09Z"/><path class="cls-2" d="M81.11,79.7l17.14,4.9c-0.89,11.23-6.35,20.25-15.73,17.72-9.76-2.64-5.3-15.9-1.47-22.49Z"/></svg>