<svg id="Layer_1" data-name="Layer 1" xmlns="http://www.w3.org/2000/svg" viewBox="0 0 138 138"><defs><style>.cls-1{fill:#78b4d4;}.cls-2{opacity:0.2;}.cls-3{fill:#221f1f;}.cls-4{fill:#fff;}.cls-5{fill:#2d4e7d;}.cls-6{fill:#e1e0d1;}</style></defs><title>SVG_icons</title><circle class="cls-1" cx="69" cy="69" r="67.53"/><g class="cls-2"><path class="cls-3" d="M106.77,99.06L76.93,69.21a8.41,8.41,0,0,0-8-2.19L51.83,50.16,45.42,37.71,33,31.29,26.9,37.34l6.42,12.47L45.8,56.23l0,0L62.83,73A8.4,8.4,0,0,0,65,81.15L94.83,111A8.44,8.44,0,0,0,106.77,99.06Z"/></g><polygon class="cls-4" points="74.27 80.11 40.29 46.55 46.48 40.65 80.47 74.22 74.27 80.11"/><path class="cls-5" d="M106.77,106.77a8.44,8.44,0,0,1-11.94,0L65,76.93A8.44,8.44,0,0,1,65,65h0a8.44,8.44,0,0,1,11.94,0l29.84,29.84a8.44,8.44,0,0,1,0,11.94h0Z"/><g class="cls-2"><path class="cls-3" d="M114,40.2L100.29,53.87A8.44,8.44,0,0,1,88.35,41.93L102,28.26A21.07,21.07,0,0,0,74.69,55.59L51.37,78.91A21.07,21.07,0,0,0,24,106.24L37.71,92.57a8.44,8.44,0,0,1,11.94,11.94L36,118.18A21.07,21.07,0,0,0,63.31,90.85L86.63,67.53A21.07,21.07,0,0,0,114,40.2Z"/></g><rect class="cls-6" x="50.92" y="60.56" width="36.17" height="16.88" transform="translate(-28.58 69) rotate(-45)"/><polygon class="cls-4" points="45.8 52.01 33.32 45.59 26.9 33.12 32.95 27.07 45.42 33.49 51.85 45.96 45.8 52.01"/><path class="cls-6" d="M100.29,49.65A8.44,8.44,0,0,1,88.35,37.71L102,24A21.15,21.15,0,1,0,114,36Z"/><path class="cls-6" d="M37.71,88.35a8.44,8.44,0,0,1,11.94,11.94L36,114A21.15,21.15,0,1,0,24,102Z"/></svg>