<svg id="Layer_1" data-name="Layer 1" xmlns="http://www.w3.org/2000/svg" viewBox="0 0 138 138"><defs><style>.cls-1{fill:#76c2af;}.cls-2{opacity:0.2;}.cls-3{fill:#221f1f;}.cls-4{fill:#fff;}.cls-5{fill:#2d4e7d;}.cls-6{fill:#d03f32;}</style></defs><title>SVG_icons</title><circle class="cls-1" cx="69" cy="69" r="67.53"/><g class="cls-2"><rect class="cls-3" x="39.46" y="45.79" width="59.09" height="59.09" rx="8.44" ry="8.44"/></g><rect class="cls-4" x="43.68" y="45.79" width="50.65" height="50.65" rx="4.22" ry="4.22"/><path class="cls-5" d="M90.1,50v42.2H47.9V50H90.1m0-8.44H47.9A8.44,8.44,0,0,0,39.46,50v42.2a8.44,8.44,0,0,0,8.44,8.44H90.1a8.44,8.44,0,0,0,8.44-8.44V50a8.44,8.44,0,0,0-8.44-8.44h0Z"/><g class="cls-2"><path class="cls-3" d="M70,88a4.22,4.22,0,0,1-3.35-1.66L53.69,69.45a4.22,4.22,0,0,1,6.7-5.13l8.84,11.55C74.1,67.11,84.69,51,101.53,40.13a4.22,4.22,0,1,1,4.58,7.09c-21.54,13.92-32.18,38-32.28,38.23A4.22,4.22,0,0,1,70.47,88,4.28,4.28,0,0,1,70,88Z"/></g><path class="cls-6" d="M70,83.77a4.23,4.23,0,0,1-3.35-1.66L53.69,65.23a4.22,4.22,0,0,1,6.71-5.13l8.84,11.55c4.87-8.77,15.46-24.87,32.3-35.75A4.22,4.22,0,1,1,106.11,43C84.57,56.92,73.93,81,73.82,81.23a4.22,4.22,0,0,1-3.36,2.51A4.28,4.28,0,0,1,70,83.77Z"/></svg>