<?xml version="1.0" encoding="utf-8"?>
<!-- Generator: Adobe Illustrator 21.0.0, SVG Export Plug-In . SVG Version: 6.00 Build 0)  -->
<svg version="1.1" id="Layer_1" xmlns="http://www.w3.org/2000/svg" xmlns:xlink="http://www.w3.org/1999/xlink" x="0px" y="0px"
	 viewBox="0 0 100 100" style="enable-background:new 0 0 100 100;" xml:space="preserve">
<style type="text/css">
	.st0{fill:#78B4D4;}
	.st1{opacity:0.2;}
	.st2{fill:#221F1F;}
	.st3{fill:#E1E0D1;}
	.st4{fill:#FFFFFF;}
</style>
<g>
	<circle class="st0" cx="50" cy="49.9" r="49.8"/>
</g>
<g>
	<g class="st1">
		<path class="st2" d="M82.1,67.6c0,3.5-2.9,6.4-6.4,6.4H24.4c-3.5,0-6.4-2.9-6.4-6.4V35.5c0-3.5,2.9-6.4,6.4-6.4h51.3
			c3.5,0,6.4,2.9,6.4,6.4V67.6z"/>
	</g>
	<g>
		<path class="st3" d="M82.1,64.4c0,3.5-2.9,6.4-6.4,6.4H24.4c-3.5,0-6.4-2.9-6.4-6.4V32.3c0-3.5,2.9-6.4,6.4-6.4h51.3
			c3.5,0,6.4,2.9,6.4,6.4V64.4z"/>
	</g>
	<g class="st1">
		<g>
			<path class="st2" d="M55.7,45.4c-3.1-3.4-8.2-3.4-11.3,0L19.6,66.3c-0.3,0.3-0.5,0.6-0.7,0.9c1.1,2.1,3.1,3.5,5.5,3.5h51.3
				c2.3,0,4.3-1.4,5.5-3.5c-0.2-0.3-0.5-0.6-0.7-0.9L55.7,45.4z"/>
		</g>
	</g>
	<g>
		<g>
			<path class="st3" d="M55.7,48.3c-3.1-3-8.2-3-11.3,0L19.6,66.8c-0.3,0.3-0.5,0.6-0.7,0.8c1.1,1.9,3.1,3.1,5.5,3.1h51.3
				c2.3,0,4.3-1.3,5.5-3.1c-0.2-0.3-0.5-0.5-0.7-0.8L55.7,48.3z"/>
		</g>
	</g>
	<g class="st1">
		<g>
			<path class="st2" d="M18.9,29.4c1.1-2.1,3.1-3.5,5.5-3.5h51.3c2.3,0,4.3,1.4,5.5,3.5c-0.2,0.3-0.5,0.6-0.7,0.9L55.7,51.2
				c-3.1,3.4-8.2,3.4-11.3,0L18.9,29.4z"/>
		</g>
	</g>
	<g>
		<g>
			<path class="st4" d="M44.4,48.3c3.1,3,8.2,3,11.3,0l24.7-18.5c0.3-0.3,0.5-0.6,0.7-0.8c-1.1-1.9-3.1-3.1-5.5-3.1H24.4
				c-2.3,0-4.3,1.3-5.5,3.1c0.2,0.3,0.5,0.5,0.7,0.8L44.4,48.3z"/>
		</g>
	</g>
</g>
</svg>
